<svg viewBox="0 0 180 180" width="180" height="180" fill="none" xmlns="http://www.w3.org/2000/svg">
  <rect width="180" height="180" rx="40" fill="#1c1917"/>
  <g transform="translate(26, 26) scale(4)">
    <defs>
      <linearGradient id="cg" x1="0%" y1="0%" x2="100%" y2="100%">
        <stop offset="0%" stop-color="#f59e0b"/>
        <stop offset="50%" stop-color="#f97316"/>
        <stop offset="100%" stop-color="#e11d48"/>
      </linearGradient>
    </defs>
    <!-- Left claw -->
    <path d="M6 8 C3 5, 1 8, 4 11 L8 13" stroke="url(#cg)" stroke-width="2" stroke-linecap="round"/>
    <path d="M6 8 C3 11, 1 8, 4 5 L8 7" stroke="url(#cg)" stroke-width="2" stroke-linecap="round"/>
    <!-- Right claw -->
    <path d="M26 8 C29 5, 31 8, 28 11 L24 13" stroke="url(#cg)" stroke-width="2" stroke-linecap="round"/>
    <path d="M26 8 C29 11, 31 8, 28 5 L24 7" stroke="url(#cg)" stroke-width="2" stroke-linecap="round"/>
    <!-- Body shell -->
    <ellipse cx="16" cy="17" rx="8" ry="6" stroke="url(#cg)" stroke-width="2" fill="none"/>
    <!-- Eyes -->
    <circle cx="12" cy="12" r="1.5" fill="url(#cg)"/>
    <circle cx="20" cy="12" r="1.5" fill="url(#cg)"/>
    <!-- Legs (3 per side) -->
    <path d="M9 19 L4 22" stroke="url(#cg)" stroke-width="1.5" stroke-linecap="round"/>
    <path d="M8 21 L4 25" stroke="url(#cg)" stroke-width="1.5" stroke-linecap="round"/>
    <path d="M10 22 L7 27" stroke="url(#cg)" stroke-width="1.5" stroke-linecap="round"/>
    <path d="M23 19 L28 22" stroke="url(#cg)" stroke-width="1.5" stroke-linecap="round"/>
    <path d="M24 21 L28 25" stroke="url(#cg)" stroke-width="1.5" stroke-linecap="round"/>
    <path d="M22 22 L25 27" stroke="url(#cg)" stroke-width="1.5" stroke-linecap="round"/>
  </g>
</svg>
